<svg enable-background="new 0 0 58 58" height="512" viewBox="0 0 58 58" width="512" xmlns="http://www.w3.org/2000/svg"><g fill="#c99a17"><path d="m34.455 1h-10.91l-4.545 10.488v30.512h20v-30.512z"/><path d="m52.227 16h-11.454l-4.773 10.488v30.512h21v-30.512z"/><path d="m17.227 16h-11.454l-4.773 10.488v30.512h21v-30.512z"/><path d="m35 0v33l5 10v-32z"/></g><path d="m40 14v29 5h12v-15-4-15z" fill="#ebba16"/><path d="m35 33h-4-4-4l-5 10h22z" fill="#a07817"/><path d="m23 0v33h4 4 4v-33z" fill="#ebba16"/><path d="m52 14v15 4 15l6 10v-32z" fill="#c99a17"/><path d="m58 58h-24l6-10h12z" fill="#a07817"/><path d="m34 43v15l6-10v-5z" fill="#c99a17"/><path d="m23 0v33l-5 10v-32z" fill="#c99a17"/><path d="m18 14v29 5h-12v-15-4-15z" fill="#ebba16"/><path d="m6 14v15 4 15l-6 10v-32z" fill="#c99a17"/><path d="m0 58 6-10h12l6 10z" fill="#a07817"/><path d="m24 43h-6v5l6 10z" fill="#c99a17"/></svg>